<svg xmlns="http://www.w3.org/2000/svg" viewBox="0 0 280.92 83.98"><defs><style>.cls-1{fill:#1d1d1b;}</style></defs><g id="Layer_2" data-name="Layer 2"><g id="Layer_1-2" data-name="Layer 1"><path class="cls-1" d="M73.06,79.5q.12,1.26-1.44,1.26a14.3,14.3,0,0,1-4.16-1.63,34.23,34.23,0,0,1-4.23-2.33Q52.66,84,38.17,84A35.12,35.12,0,0,1,10.35,71.34Q0,59.38,0,42.19,0,24.61,10.17,12.65,20.92,0,38.17,0a37.1,37.1,0,0,1,17,4.17A34.13,34.13,0,0,1,68.29,15.58,3.43,3.43,0,0,1,69,17.25q0,.8-4.11,5.31t-4.74,4.51c-.31,0-1.48-1.16-3.51-3.5a36.76,36.76,0,0,0-7-6.5,19.4,19.4,0,0,0-10.93-3.5q-10.86,0-17.82,9.08A31.29,31.29,0,0,0,14.6,42.19a31,31,0,0,0,6.5,19.43q7.06,9.15,17.76,9.14A34.51,34.51,0,0,0,58.17,65c-.07-1-.4-4.67-1-10.92-.06-.63-9.67.21-9.75-.42,0,0,.19-7,.24-11.18,0-.11,18.47,0,20-.07s2.6-.11,3.33-.11,1.21.61,1.21,1.84,0,3.36-.14,6.06-.15,4.73-.15,6.07q0,8.27,1.09,22.41Z"/><path class="cls-1" d="M97,13.57q0,7.07-7.87,7.07t-8-7.07a6.51,6.51,0,0,1,2.47-5.23,8.71,8.71,0,0,1,11.07.05A6.53,6.53,0,0,1,97,13.57Zm-.4,15.56q0,4.43-.54,13.36t-.55,13.43q0,4.19.17,12.56T95.82,81c0,.8-.34,1.21-1,1.21H83.58c-.8,0-1.21-.79-1.21-2.36q0-4,.2-11.93t.21-12q0-4.48-.67-13.45T81.45,29c0-.65.41-1,1.21-1a25.24,25.24,0,0,1,3.19.29,26.89,26.89,0,0,0,3.25.28,26.89,26.89,0,0,0,3.25-.28A25.26,25.26,0,0,1,95.59,28C96.25,28,96.57,28.4,96.57,29.13Z"/><path class="cls-1" d="M163.83,30.29a6.41,6.41,0,0,1-.18,1A138.44,138.44,0,0,0,161.41,54q0,.59,1.44,25.81l.06.81c0,1.11-.47,1.67-1.53,1.67a44.71,44.71,0,0,0-4.77.37,44.28,44.28,0,0,1-4.74.37c-.73,0-1.28-1.34-1.67-4s-.74-4-1.09-4a14.67,14.67,0,0,0-3.1,2.24,33.25,33.25,0,0,1-6.33,4.19,19.82,19.82,0,0,1-9.08,2.3q-11.14,0-18.79-8.91A29.65,29.65,0,0,1,104.56,55q0-12.76,7.3-21.09,7.65-8.69,20.12-8.69a21.85,21.85,0,0,1,15.35,6.1q1,1.16,3,3.33a.46.46,0,0,0,.34.17c.23,0,.56-1.2,1-3.62s1-3.62,1.61-3.62a36.11,36.11,0,0,1,5.8.86C162.26,29.14,163.83,29.76,163.83,30.29Zm-14.66,24A18.4,18.4,0,0,0,145,42.19a13.93,13.93,0,0,0-11.32-5.46,14.48,14.48,0,0,0-11.5,5.41,18.13,18.13,0,0,0-4.42,12.18,17.85,17.85,0,0,0,4.42,12.07,14.54,14.54,0,0,0,11.5,5.35,14.11,14.11,0,0,0,11.27-5.46A18.17,18.17,0,0,0,149.17,54.32Z"/><path class="cls-1" d="M187.74,2.46l-.06.74q-1.26,21.39-1.26,36.74,0,6.84.23,20.49t.23,20.43c0,.89-.31,1.33-.92,1.33H175c-.69,0-1-.44-1-1.33q0-6.78.12-20.43t.11-20.49q0-6.21-.6-18.66T173,2.69c0-.77.4-1.15,1.2-1.15s1.73.06,3.11.17,2.41.17,3.1.17,1.8,0,3.22-.17,2.47-.17,3.16-.17S187.78,1.84,187.74,2.46Z"/><path class="cls-1" d="M213.67,2.46l-.06.74q-1.28,21.39-1.27,36.74,0,6.84.23,20.49t.23,20.43c0,.89-.3,1.33-.92,1.33h-11c-.69,0-1-.44-1-1.33q0-6.78.11-20.43t.12-20.49q0-6.21-.6-18.66t-.61-18.59c0-.77.4-1.15,1.21-1.15s1.72.06,3.1.17,2.42.17,3.11.17,1.8,0,3.22-.17,2.47-.17,3.16-.17S213.7,1.84,213.67,2.46Z"/><path class="cls-1" d="M280.92,30.29a7.23,7.23,0,0,1-.17,1A137.35,137.35,0,0,0,278.51,54q0,.59,1.43,25.81l.06.81c0,1.11-.47,1.67-1.52,1.67a44.35,44.35,0,0,0-4.77.37,44.61,44.61,0,0,1-4.75.37c-.72,0-1.28-1.34-1.66-4s-.75-4-1.09-4a14.57,14.57,0,0,0-3.11,2.24,33.52,33.52,0,0,1-6.32,4.19,19.88,19.88,0,0,1-9.08,2.3q-11.16,0-18.8-8.91A29.64,29.64,0,0,1,221.66,55q0-12.76,7.3-21.09,7.64-8.69,20.11-8.69a21.83,21.83,0,0,1,15.35,6.1q1,1.16,3.05,3.33a.46.46,0,0,0,.34.17c.23,0,.56-1.2,1-3.62s1-3.62,1.61-3.62a36.18,36.18,0,0,1,5.81.86C279.35,29.14,280.92,29.76,280.92,30.29Zm-14.66,24a18.44,18.44,0,0,0-4.19-12.13,14,14,0,0,0-11.33-5.46,14.44,14.44,0,0,0-11.49,5.41,18.09,18.09,0,0,0-4.43,12.18,17.81,17.81,0,0,0,4.43,12.07,14.51,14.51,0,0,0,11.49,5.35A14.09,14.09,0,0,0,262,66.28,18.17,18.17,0,0,0,266.26,54.32Z"/></g></g></svg>